<svg xmlns="http://www.w3.org/2000/svg" xmlns:xlink="http://www.w3.org/1999/xlink" version="1.1" x="0px" y="0px" viewBox="0 0 100 125" enable-background="new 0 0 100 100" xml:space="preserve"><path d="M92.485,29.809c-0.519-0.965-1.493-1.69-2.744-2.041c-1.385-0.389-2.854-0.241-3.931,0.393  c-1.764,1.035-2.596,2.818-3.4,4.544c-0.681,1.459-1.324,2.837-2.468,3.621c-0.678,0.464-1.266,0.744-1.876,0.888  c0.169-1.134,0.29-2.288,0.347-3.459c0.182-3.739-1.208-7.176-3.716-9.194c-1.524-1.228-3.658-1.743-6.021-1.44  c-2.642,0.335-5.033,1.63-6.398,3.463c-2.309,3.099-2.45,6.965-2.588,10.704c-0.127,3.446-0.246,6.702-1.935,9.333  c-0.833,1.296-1.68,2.291-2.623,3.076c1.749-24.574-0.39-30.479-0.896-31.497c-2.383-6.949-7.822-10.039-14.217-8.062  c-7.547,2.334-8.313,9.995-8.928,16.15l-0.075,0.749c-0.522,5.119-0.223,10.799,0.235,16.349l-1.758-0.593  c-4.813-2.854-3.541-11.459-2.854-16.093c0.12-0.812,0.345-1.688,0.583-2.616c0.458-1.785,0.932-3.63,0.752-5.381  c-0.423-4.111-4.597-7.835-8.606-7.639c-3.547,0.163-7.389,5.058-8.148,8.153c-0.713,2.909-0.231,5.902,0.234,8.797  c0.095,0.591,0.189,1.176,0.271,1.752c1.325,9.315,4.747,15.355,11.097,19.586c2.31,1.539,5.744,3.418,9.343,4.033  c0.427,4.41,0.908,8.857,1.552,13.24c0.34,2.313,0.707,4.632,1.073,6.951c-1.639-0.711-2.481-2.291-3.477-4.208  c-0.182-0.351-0.365-0.702-0.554-1.051c-0.58-1.068-2.2-3.608-4.695-4.129c-1.282-0.268-2.576,0.07-3.743,0.979  c-1.06,0.823-1.651,1.899-1.759,3.196c-0.266,3.203,2.551,6.533,3.421,7.478c2.63,2.855,6.307,4.248,11.227,4.248  c0.185,0,0.372-0.002,0.561-0.006l-0.005-0.231c0.448,2.912,0.875,5.844,1.242,8.75c-0.765,0.202-1.468,0.423-2.156,0.643  c-2.183,0.698-4.245,1.358-8.481,1.358s-6.298-0.66-8.481-1.358c-2.232-0.715-4.542-1.454-9.09-1.454v2  c4.237,0,6.298,0.66,8.481,1.358c2.232,0.715,4.542,1.454,9.09,1.454c4.549,0,6.858-0.739,9.091-1.454  c2.183-0.698,4.244-1.358,8.481-1.358c4.238,0,6.3,0.66,8.483,1.358c2.233,0.715,4.542,1.454,9.092,1.454s6.858-0.739,9.092-1.454  c2.183-0.698,4.245-1.358,8.482-1.358v-2c-4.549,0-6.859,0.739-9.092,1.454c-2.184,0.698-4.245,1.358-8.482,1.358  s-6.299-0.66-8.482-1.358c-0.717-0.229-1.449-0.459-2.253-0.668l0.195-0.782l0.021-0.107c0.37-2.713,0.712-5.32,1.032-7.829  l-0.005,0.226c0.188,0.004,0.375,0.006,0.561,0.006c4.921,0,8.599-1.393,11.228-4.248c0.87-0.944,3.687-4.273,3.421-7.478  c-0.107-1.297-0.698-2.372-1.758-3.196c-1.168-0.909-2.46-1.249-3.743-0.979c-2.494,0.52-4.115,3.061-4.696,4.129  c-0.189,0.349-0.372,0.701-0.555,1.052c-1.037,1.999-1.907,3.634-3.691,4.295c0.516-4.337,0.951-8.344,1.316-12.04  c6.577-2.008,12.747-5.309,16.606-8.907c2.492-2.325,4.49-5.574,5.833-9.339c0.621,0.044,1.242,0.073,1.856,0.073  c2.479,0,4.846-0.353,6.673-1.021c2.909-1.065,5.653-3.801,7.343-7.317C93.281,33.319,93.307,31.337,92.485,29.809z M25.985,18.907  c0.144,1.395-0.285,3.064-0.7,4.679c-0.241,0.937-0.49,1.906-0.625,2.821c-0.76,5.133-2.173,14.687,3.921,18.17l2.856,0.979  c0.021,0.239,0.042,0.48,0.063,0.719l0.031,0.341c0.039,0.424,0.079,0.855,0.117,1.28c-4.18-1.444-7.339-4.208-9.384-8.258  c-3.891-7.708-2.907-18.37-0.151-25.931C24.095,14.722,25.768,16.792,25.985,18.907z M23.932,47.687  c-5.834-3.888-8.988-9.502-10.226-18.204c-0.083-0.588-0.18-1.185-0.277-1.789c-0.434-2.698-0.883-5.487-0.267-8.002  c0.592-2.413,3.862-6.52,6.298-6.631c0.247-0.011,0.497,0.007,0.747,0.039c-2.883,7.976-3.874,19.227,0.272,27.439  c2.427,4.808,6.259,7.992,11.367,9.513c0.039,0.423,0.076,0.842,0.116,1.267C28.714,50.627,25.603,48.8,23.932,47.687z   M25.656,66.146c1.37,0.285,2.627,1.802,3.347,3.126c0.183,0.338,0.36,0.678,0.536,1.017c1.173,2.26,2.513,4.774,5.594,5.484  c0.002,0.013,0.004,0.025,0.006,0.038c-7.086-0.811-9.281-7.236-9.865-9.699C25.4,66.115,25.528,66.118,25.656,66.146z   M25.455,74.485c-1.436-1.559-3.056-4.054-2.898-5.957c0.055-0.668,0.346-1.21,0.863-1.661c0.839,3.125,3.679,10.35,12.04,10.984  c0.012,0.076,0.024,0.151,0.036,0.229C30.973,78.134,27.764,76.992,25.455,74.485z M38.971,88.176  c-0.583-4.582-1.31-9.22-2.021-13.717c-0.429-2.713-0.857-5.422-1.254-8.126c-0.967-6.584-1.579-13.353-2.171-19.898l-0.031-0.341  c-0.596-6.604-1.082-13.014-0.487-18.854l0.076-0.752c0.44-4.396,0.924-9.233,3.793-12.193c-0.819,8.809-2.98,41.078,5.349,73.537  C40.965,87.89,39.909,88.014,38.971,88.176z M42.947,82.252c-7.462-33.303-4.389-65.122-3.903-69.546  c0.484-0.251,0.995-0.479,1.568-0.657c0.803-0.249,1.581-0.39,2.335-0.451V82.252z M44.947,11.66  c1.512,0.227,2.881,0.865,4.061,1.893l-0.15,0.015c2.354,23.138,0.993,46.63-3.911,68.344V11.66z M65.241,68.528  c0.158,1.903-1.463,4.398-2.898,5.957c-2.317,2.517-5.522,3.651-10.09,3.595c0.005-0.035,0.01-0.072,0.014-0.107  C52.484,77.99,52.701,78,52.915,78c6.108,0,10.499-7.052,12.149-10.187C65.153,68.037,65.22,68.271,65.241,68.528z M58.258,70.289  c0.176-0.339,0.354-0.68,0.537-1.018c0.72-1.324,1.978-2.841,3.348-3.127c0.48-0.1,0.953-0.028,1.43,0.192  c-1.249,2.484-5.506,10.011-11.061,9.647c0.008-0.062,0.016-0.124,0.022-0.186C55.708,75.13,57.069,72.58,58.258,70.289z   M49.024,87.362l-0.199,0.798c-0.937-0.157-1.985-0.279-3.24-0.335c5.797-22.571,7.687-47.294,5.51-71.712  c0.49,0.829,0.919,1.758,1.271,2.798l0.097,0.205C52.656,19.455,57.096,28.091,49.024,87.362z M54.939,52.278  c1.739-1.044,3.146-2.473,4.499-4.577c1.984-3.093,2.12-6.777,2.251-10.341c0.132-3.591,0.257-6.983,2.192-9.583  c1.032-1.385,2.966-2.41,5.047-2.674c0.666-0.085,1.298-0.061,1.901,0.015c0.822,19.702-11.694,27.027-16.035,28.962  C54.845,53.47,54.894,52.869,54.939,52.278z M69.35,51.253c-3.492,3.257-9.038,6.259-15.031,8.196  c0.101-1.07,0.197-2.119,0.286-3.135c3.33-1.344,18.807-8.786,18.251-30.557c0.202,0.114,0.413,0.22,0.588,0.36  c1.981,1.595,3.12,4.484,2.972,7.54C76.066,40.873,73.425,47.451,69.35,51.253z M81.073,37.977c1.594-1.092,2.385-2.787,3.149-4.426  c0.706-1.514,1.374-2.945,2.601-3.665c0.469-0.275,1.116-0.378,1.78-0.304c-0.277,1.549-1.157,4.894-3.773,7.104  c-1.428,1.205-3.199,1.908-5.271,2.126C80.054,38.602,80.551,38.334,81.073,37.977z M90.616,34.245  c-1.469,3.059-3.797,5.416-6.228,6.306c-1.915,0.701-4.531,1.001-7.222,0.862c0.053-0.185,0.107-0.369,0.157-0.556  c0.282,0.014,0.572,0.041,0.847,0.041c3.176,0,5.85-0.904,7.964-2.696c2.849-2.414,3.939-5.821,4.348-7.779  c0.097,0.104,0.179,0.216,0.241,0.333C91.235,31.708,91.194,33.044,90.616,34.245z"/><text x="0" y="115" fill="#000000" font-size="5px" font-weight="bold" font-family="'Helvetica Neue', Helvetica, Arial-Unicode, Arial, Sans-serif">Created by Brand Mania</text><text x="0" y="120" fill="#000000" font-size="5px" font-weight="bold" font-family="'Helvetica Neue', Helvetica, Arial-Unicode, Arial, Sans-serif">from the Noun Project</text></svg>